<svg xmlns="http://www.w3.org/2000/svg" height="24" width="24"><path d="M16.681 10.276l-1.38 1.38c-.2.2-.2.51 0 .71l1.38 1.38c.28.28.75.15.85-.23.11-.5.17-1 .17-1.52a6 6 0 0 0-.18-1.48.5.5 0 0 0-.84-.24zm4.12-2.5a.863.863 0 0 0-1.4-.24c-.26.26-.31.64-.17.98.46 1.07.72 2.24.72 3.47 0 1.24-.26 2.42-.73 3.49a.84.84 0 0 0 .16.94.84.84 0 0 0 1.35-.23c.63-1.3.98-2.76.98-4.3a9.995 9.995 0 0 0-.91-4.11zm-16.1 5.216c.55-.55.55-1.44 0-1.99v-.01c-.55-.55-1.45-.55-2 0s-.55 1.45 0 2 1.45.55 2 0zm13.29 4.894L4.811 4.696a.996.996 0 1 0-1.41 1.41l5.89 5.89-4.89 4.89a.996.996 0 1 0 1.41 1.41l3.89-3.89v6.18c0 .89 1.08 1.34 1.71.71l3.59-3.59 1.59 1.59c.39.39 1.02.39 1.41 0 .38-.39.38-1.03-.01-1.41zm-6.29.28v-3.76l1.88 1.88zm0-12.34l1.88 1.88-1.47 1.47 1.41 1.41 2.18-2.17c.39-.39.39-1.02 0-1.42l-4.29-4.29c-.63-.63-1.71-.19-1.71.7v3.36l2 2z"/></svg>